<?xml version="1.0" encoding="UTF-8" standalone="no"?>
<!-- Created with Inkscape (http://www.inkscape.org/) -->

<svg
   xmlns:dc="http://purl.org/dc/elements/1.1/"
   xmlns:cc="http://creativecommons.org/ns#"
   xmlns:rdf="http://www.w3.org/1999/02/22-rdf-syntax-ns#"
   xmlns:svg="http://www.w3.org/2000/svg"
   xmlns="http://www.w3.org/2000/svg"
   version="1.1"
   width="400"
   height="480"
   id="svg2">
  <metadata
     id="metadata8">
    <rdf:RDF>
      <cc:Work
         rdf:about="">
        <dc:format>image/svg+xml</dc:format>
        <dc:type
           rdf:resource="http://purl.org/dc/dcmitype/StillImage" />
        <dc:title></dc:title>
      </cc:Work>
    </rdf:RDF>
  </metadata>
  <defs
     id="defs6" />
  <path
     d="m 56.899696,130.57751 a 24.072948,53.252281 0 1 1 -48.1458966,0 24.072948,53.252281 0 1 1 48.1458966,0 z"
     transform="matrix(8.2873106,0,0,4.4974599,-72.045456,-347.26714)"
     id="path4887"
     style="fill:#ffffff;fill-opacity:1;fill-rule:evenodd;stroke:#000000;stroke-width:0.16379836;stroke-linecap:round;stroke-linejoin:round;stroke-miterlimit:4;stroke-opacity:1;stroke-dasharray:none;stroke-dashoffset:0" />
  <path
     d="M 200.01739,0.49999 C 89.8342,0.49999 0.5,107.73957 0.5,240.01738 c 0,132.27779 89.3342,239.48261 199.51739,239.48261 110.18319,0 199.4826,-107.20482 199.4826,-239.48261 0,-132.27781 -89.29941,-239.51739 -199.4826,-239.51739 z m 8.14357,19.39778 c 9.13184,0.479531 18.09426,1.798884 26.83201,3.823935 -0.80919,2.627036 -4.38137,6.565309 -10.23167,12.758037 -5.29444,5.604354 -12.14574,16.911627 -12.14574,20.058277 0,0.0813 -0.007,0.162629 0,0.243342 2.19061,0.979589 4.26777,2.185591 6.15987,3.615356 1.35112,-0.768663 3.2116,-2.707904 6.85591,-6.639741 3.97684,-4.29059 11.07081,-10.495857 15.76511,-13.800929 4.69431,-3.305073 9.48246,-7.089154 10.64928,-8.377894 0.47813,-0.528086 1.17933,-1.406097 1.87929,-2.224835 7.81252,2.878502 15.39538,6.378029 22.72542,10.428914 -2.0611,2.63453 -6.63079,6.513192 -10.96249,8.79505 -2.9626,1.560648 -10.98088,4.656906 -17.8184,6.84832 -11.52278,3.693036 -21.26603,8.130267 -23.38666,10.567966 1.62102,2.04231 2.99222,4.301709 4.07179,6.709268 l 8.07396,-2.676755 c 9.96354,-3.304504 15.39666,-4.52662 30.55578,-6.813557 11.0889,-1.672895 17.15458,-3.714585 25.23113,-7.474055 1.12879,-0.525426 2.73099,-1.874751 4.14139,-3.093911 7.14776,5.320189 13.97914,11.177267 20.42852,17.590102 -3.21609,2.788755 -14.50479,4.624587 -40.0218,4.484432 -22.4196,-0.123141 -28.62048,0.197342 -36.33284,1.877205 -4.33038,0.943223 -8.12489,1.634203 -9.98805,2.537702 0.43038,2.075404 0.66123,4.22833 0.66123,6.431164 0,0.231452 0.004,0.464998 0,0.695261 2.82993,0.310243 8.63735,-0.04503 20.84614,0.139051 12.95278,0.1953 23.98063,1.019724 31.18221,2.294361 12.32924,2.182209 31.60831,2.804416 43.11914,1.390523 l 7.30833,-0.90384 c 0.44137,0.563928 0.88602,1.133903 1.32246,1.70339 l 6.12507,9.351261 c 4.24056,6.46491 8.22664,12.58018 12.00654,18.5287 19.13318,34.78292 30.31217,76.45203 30.31217,121.25351 0,30.04392 -5.02008,58.66384 -14.09463,84.7523 l -36.47205,-78.77306 0,-3.78918 15.62591,-8.37789 1.67047,-0.90383 -18.96685,-12.20183 0,-26.83707 c 4.35619,-3.34104 15.48667,3.47312 21.82058,-2.98963 -11.47426,-2.05386 -12.81888,-6.41278 -21.82058,-5.59685 l 0,-2.71151 c 0.0185,-0.59393 -0.51879,-1.14742 -1.11365,-1.14719 -0.59487,-2.3e-4 -1.13219,0.55326 -1.11365,1.14719 l 0,37.89171 -19.31487,12.44518 1.67047,0.90383 15.97392,8.58647 0,3.65012 -37.02886,79.85072 -12.18056,-47.3125 0,-11.33275 15.62591,-8.3779 1.63567,-0.90384 -18.37523,-11.8542 0,-20.30162 14.54706,-8.9341 1.39206,-0.86908 -16.11313,-11.8542 0,-35.87546 c 3.67552,-5.00225 15.82039,3.11356 22.55142,-3.75441 -11.77387,-2.10749 -12.89193,-6.6125 -22.55142,-5.49256 l 0,-3.78917 c 0.0225,-0.63034 -0.58943,-1.20664 -1.21805,-1.14718 -0.0471,0.009 -0.0937,0.0203 -0.13921,0.0348 -0.49797,0.11139 -0.88232,0.60281 -0.87004,1.11241 l 0,48.11206 -0.10434,0.0695 -17.08758,12.58421 1.39207,0.86908 14.86027,9.10792 0,19.88447 -18.75805,12.09753 1.67048,0.90384 15.97392,8.58647 0,3.68489 -49.94025,54.89085 -5.49865,0 c -10.42334,1.00186 -3.23676,5.7731 0,9.69888 6.46315,10.75627 14.30734,19.75361 25.33554,24.64701 -29.39327,-2.20712 -63.37476,-6.52642 -93.33781,-9.24698 l 1.21806,-4.55396 c 15.01603,-3.72487 24.80525,-14.16247 32.60907,-27.14994 3.23676,-3.92578 10.42334,-8.69701 0,-9.69888 l -5.88147,0 0,-23.01314 c 3.67552,-5.00225 15.85519,3.11356 22.58622,-3.75441 -11.78253,-2.10904 -12.907,-6.62167 -22.58622,-5.49256 l 0,-2.5377 c 0.0185,-0.59393 -0.51878,-1.14741 -1.11365,-1.14719 -0.0705,0.004 -0.14052,0.0166 -0.20881,0.0348 -0.51049,0.0973 -0.91399,0.59336 -0.90484,1.11241 l 0,34.79781 -15.83471,0 0,-46.82582 12.25015,-25.82895 c 5.49032,-1.61836 12.27299,10.30028 21.12455,7.47406 -9.42001,-7.36261 -8.30465,-11.91242 -17.36598,-15.43479 l 1.74008,-3.68489 -1.00925,-0.48668 -16.73955,35.31926 0,-29.13143 c 0.0275,-0.95919 -0.92621,-1.82362 -1.87929,-1.7034 -0.81462,0.10223 -1.48509,0.88361 -1.46166,1.7034 l 0,36.18832 -20.08051,42.41092 -1.04404,0 -19.8021,-42.75854 0,-40.04703 c 0.0248,-0.94621 -0.90208,-1.80221 -1.84448,-1.7034 -0.82683,0.0863 -1.51821,0.87327 -1.49647,1.7034 l 0,38.48269 -6.50789,14.11379 -15.03428,-32.39915 0,-21.69215 15.62591,-8.37788 1.63567,-0.86908 -18.93205,-12.20183 0,-36.36215 c 3.93113,-4.39455 15.74708,3.28815 22.34259,-3.44154 -11.67988,-2.09067 -12.89439,-6.58401 -22.34259,-5.56208 l 0,-1.56435 c 0.0225,-0.63034 -0.58944,-1.20664 -1.21806,-1.14718 -0.0471,0.009 -0.0937,0.0203 -0.13921,0.0348 -0.49796,0.1114 -0.88232,0.60282 -0.87003,1.11242 l 0,46.68677 -19.31488,12.44517 1.67048,0.86908 15.97392,8.58647 0,21.48356 -29.02451,62.60825 -0.69603,0 -4.4894,-18.28536 10.02285,0 c 0.58835,0.008 1.11364,-0.52466 1.11364,-1.11242 0,-0.58777 -0.52529,-1.12073 -1.11364,-1.11242 l -10.57968,0 -1.60088,-6.50069 0,-18.32012 15.62591,-8.3779 1.67047,-0.86908 -18.41003,-11.8542 0,-8.79505 14.54707,-8.93409 1.39206,-0.86908 -16.11318,-11.8888 0,-17.76392 0.0696,1.77292 c 3.21344,-6.06844 15.95128,2.81366 22.89944,-4.27585 -11.94145,-2.13749 -12.92122,-6.75869 -22.96903,-5.45781 l 0,-1.63385 c 0.0185,-0.59393 -0.51879,-1.14742 -1.11365,-1.14719 -0.59487,-2.3e-4 -1.13218,0.55326 -1.11365,1.14719 l 0,26.59373 -0.0696,0.0347 -15.79991,11.64562 -1.32246,0.97337 1.39205,0.86908 14.86027,9.10792 0,8.41265 -18.75804,12.06277 1.67047,0.86908 15.97392,8.58648 0,18.11154 -1.60086,6.50069 -10.54487,0 c -0.0462,-0.003 -0.0929,-0.003 -0.13922,0 -0.5831,0.0364 -1.08048,0.59948 -1.04404,1.18194 0.0364,0.58247 0.60014,1.07929 1.18326,1.0429 l 9.98805,0 -4.48941,18.28536 -9.81404,0 c -6.0914,-21.91596 -9.43123,-45.35489 -9.43123,-69.73467 0,-53.33018 15.77692,-102.22244 42.0403,-140.338417 0.008,0.125567 0.0266,0.257224 0.0348,0.382397 l 4.07179,-6.118299 c 1.17801,-1.595712 2.369,-3.173915 3.58456,-4.727775 l 6.47309,0.834313 c 10.86663,1.47693 31.42394,0.834401 44.12839,-1.390521 8.09993,-1.418533 17.85345,-2.085749 31.73903,-2.190072 l 19.59329,-0.173815 c -0.006,-0.241712 0,-0.486999 0,-0.730024 0,-1.933865 0.18826,-3.828661 0.52202,-5.666376 -0.80694,-0.667698 -2.91371,-1.734196 -8.42198,-3.059148 -6.93333,-1.667843 -13.17564,-2.025833 -36.6809,-2.016377 -28.1288,0.01138 -34.32016,-0.599724 -38.52534,-3.823935 -0.76168,-0.583998 -1.19244,-1.012025 -1.11365,-1.633864 5.59563,-5.493335 11.45748,-10.579736 17.57479,-15.260976 1.60521,-0.05865 4.26707,0.773491 7.13433,2.224834 6.85932,3.472035 15.68437,5.954718 24.32629,6.883083 7.84289,0.842531 28.43305,5.623154 33.82713,7.856449 1.89331,0.783885 3.22511,1.224176 4.24579,1.355758 1.08431,-2.356796 2.43111,-4.569708 4.03698,-6.570215 -0.0737,-0.104823 -0.15386,-0.204842 -0.24361,-0.312868 -1.96967,-2.370756 -11.49075,-6.594222 -23.97831,-10.637601 -15.76679,-5.105168 -27.82404,-11.48371 -28.18927,-14.739531 7.21861,-4.033407 14.68589,-7.534227 22.3774,-10.428915 0.88973,0.434371 1.82021,1.118122 2.50572,1.877205 1.16683,1.292059 6.53753,5.376368 11.93694,9.073155 5.39941,3.696788 12.37227,9.633188 15.4867,13.209957 2.88172,3.309519 4.84216,5.190811 6.50789,5.944481 1.97267,-1.398977 4.09636,-2.58955 6.36869,-3.511067 -0.23798,-1.155072 -1.20702,-2.981081 -3.06254,-6.50069 -2.12583,-4.032337 -7.26254,-11.137485 -11.41492,-15.782423 -4.15226,-4.644825 -7.55188,-9.2526 -7.55188,-10.255042 0,-0.08971 0.008,-0.18863 0.0347,-0.278105 8.19537,-1.851928 16.58579,-3.083928 25.12674,-3.580593 0.68455,2.90593 2.45825,16.641774 3.48015,27.115175 0.35549,3.643375 0.79211,5.88196 1.67048,7.19595 1.17462,-0.132412 2.3745,-0.208578 3.58456,-0.208578 1.36785,0 2.715,0.109506 4.03698,0.278105 0.96425,-2.096982 1.49038,-6.905306 2.61012,-18.076784 0.58666,-5.853133 1.2651,-12.352971 1.77488,-16.338631 z m -8.10877,47.173453 c -5.50727,0 -13.52949,6.659234 -16.53074,13.731402 -1.28419,3.02607 -1.95429,4.609751 3.86297,7.960737 4.77183,2.748776 7.33757,1.880543 6.12508,11.297988 -0.56167,4.36248 -0.22065,5.22925 -1.74008,4.93635 -0.83231,-0.16043 -2.15617,-1.10339 -4.10659,-2.88533 -3.36472,-3.074073 -23.43904,-8.343129 -29.54653,-8.343129 -8.57561,0 -24.03828,5.004523 -42.94514,13.905219 -13.00565,6.12261 -24.89824,10.56796 -28.25888,10.56796 -3.61645,0 -7.14687,4.01352 -5.77705,6.57022 2.59898,4.85086 21.02221,8.87233 31.32141,6.84832 3.65408,-0.7181 11.07816,-1.33913 16.53074,-1.39052 8.345,-0.0787 10.54551,0.28846 13.85103,2.32912 4.90864,3.03036 16.64111,21.10403 16.11313,24.82082 -0.2486,1.75001 -3.27133,4.5146 -9.81404,8.9341 -16.30737,11.01535 -20.20068,17.54007 -14.26865,23.84745 3.07778,3.27251 7.81775,3.31638 14.92988,0.17382 3.77514,-1.66807 7.31463,-2.3255 11.83253,-2.19008 8.28387,0.24829 10.898,1.30135 16.80916,6.74403 2.65753,2.44692 6.32092,5.22176 8.10876,6.15306 3.86395,2.01277 4.39842,2.056 7.20393,0.55621 1.84299,-0.98524 2.15213,-2.39103 2.15769,-9.73365 0.007,-9.78159 1.59454,-16.84938 4.21099,-18.87634 0.99929,-0.77415 4.88003,-1.39051 8.77,-1.39051 6.25406,0 7.40975,-0.36466 10.99729,-3.51108 2.20443,-1.93337 5.20261,-5.91377 6.68191,-8.82981 1.56767,-3.09023 3.75669,-5.61955 5.22023,-6.08353 1.38104,-0.43784 5.50284,-3.65884 9.18762,-7.16119 9.64943,-9.17169 10.36771,-9.43987 23.97828,-8.89934 22.74231,0.90322 25.24706,0.60579 35.07998,-4.38014 10.26342,-5.20422 19.48888,-12.62815 19.48888,-15.67814 0,-2.73425 -2.51249,-3.96744 -10.02286,-4.83206 -6.53023,-0.75179 -11.05416,-2.06384 -34.14033,-9.97699 -8.40551,-2.881122 -19.90613,-5.856597 -27.00602,-6.987375 -11.90287,-1.895736 -12.64046,-1.885086 -20.18491,0.06953 -4.31045,1.116748 -7.45805,3.431818 -7.62155,3.198201 -0.16348,-0.233618 -1.71019,-5.019784 -2.81892,-8.690762 -4.77861,-15.821805 -10.20676,-22.804557 -17.6792,-22.804557 z m -1.77488,7.925974 c 0.51687,0.01035 0.94836,0.141658 1.39206,0.104289 0.53244,-0.04484 2.27912,0.06197 2.81893,0.382393 3.37181,2.001435 7.75261,15.103465 11.62372,29.965741 6.1008,23.42262 6.29909,24.59041 6.29909,35.66688 0,16.48422 -4.27956,22.73505 -15.5911,22.73505 -11.14211,0 -15.35117,4.75318 -16.39154,18.49393 -0.41826,5.52408 -0.1868,8.41487 -0.69603,9.62936 -0.56667,1.35149 -3.55912,-2.4771 -5.18544,-4.20633 -7.4587,-7.93061 -21.07535,-10.48395 -32.57428,-6.11829 -6.62479,2.51516 -10.07616,4.0491 -8.83959,2.22483 0.88263,-1.30209 4.52687,-4.95639 9.39642,-8.2736 37.76092,-25.72327 50.9495,-43.87627 50.9495,-70.18659 0,-10.746556 0.18173,-16.177071 -5.84666,-20.058276 -3.04972,-1.963475 -5.25148,-2.015743 -5.08103,-3.441541 0.15904,-1.330302 2.13605,-4.078057 5.81186,-6.326874 0.77792,-0.47592 1.39722,-0.60136 1.91409,-0.590972 z m 1.60087,3.823935 c -0.39201,0.01705 -0.81889,0.196444 -1.25285,0.556209 -0.85746,0.710862 -1.31011,1.751856 -0.97445,2.294361 0.81239,1.313008 2.41918,1.238256 3.27135,-0.139053 0.89943,-1.453702 0.132,-2.762689 -1.04405,-2.711517 z m 36.50685,23.882208 c 8.6788,-0.10372 20.53885,1.60226 29.92935,4.90159 18.80753,6.60797 38.37159,11.68376 38.87335,12.65375 0.30625,0.59202 -5.20989,3.58985 -9.36162,5.70114 -8.40253,4.273 -11.78121,4.56067 -31.1126,2.88533 -13.6683,-1.18455 -17.99389,0.2772 -26.484,8.86458 -3.32667,3.36478 -7.68926,7.43929 -8.42198,7.43929 -1.29257,0 -0.7773,-3.57998 -2.2273,-15.22621 -0.38088,-3.05915 -1.40156,-8.03742 -2.2621,-11.05465 -2.03085,-7.12067 -2.00379,-12.22699 0.10435,-13.97474 1.68437,-1.39637 5.75521,-2.12785 10.96249,-2.19008 z m -79.06917,0.20858 c 8.39245,-0.25014 16.42508,1.43068 23.73467,5.00588 7.23197,3.53723 10.79801,8.16236 9.91845,12.86233 -1.15454,6.16933 -6.91815,15.85201 -13.46821,22.70027 -3.68648,3.85431 -7.46829,7.02213 -8.42198,7.02213 -2.23985,0 -4.9858,-3.10797 -11.55412,-13.14043 -3.15085,-4.81262 -7.16718,-9.35805 -9.84884,-11.12417 -4.51991,-2.97675 -4.59466,-2.97711 -24.91792,-2.88534 -11.21379,0.0506 -20.39372,-0.10544 -20.39372,-0.31286 0,-0.7573 26.42708,-12.91102 34.90597,-16.06053 6.77672,-2.51723 13.51824,-3.87272 20.0457,-4.06728 z m 117.35089,103.21149 0,7.78691 -10.54487,0 10.54487,-7.78691 z m -188.6593,0.24333 0,7.68263 -11.86734,0 11.86734,-7.68263 z m 2.2273,0.27811 11.48452,7.40452 -11.48452,0 0,-7.40452 z m 188.6593,0.2781 9.46603,6.98737 -9.46603,0 0,-6.98737 z m -232.43967,7.89121 0,7.75216 -10.54489,0 10.54489,-7.75216 z m 2.2273,0.79956 9.46602,6.9526 -9.46602,0 0,-6.9526 z m 216.95298,1.63386 23.21264,0 -10.57967,6.50069 -2.01849,0 -10.61448,-6.50069 z m -190.05137,0.13906 26.658,0 -13.12019,7.05689 -0.41763,0 -13.12018,-7.05689 z m 255.47832,5.77066 0,7.64787 -11.83254,0 11.83254,-7.64787 z m 2.2273,0.20857 11.51933,7.4393 -11.51933,0 0,-7.4393 z m -297.86663,2.5377 23.21265,0 -10.64928,6.53546 -1.94889,0 -10.61448,-6.53546 z m 283.28478,8.23885 26.62319,0 -13.1898,7.05689 -0.2784,0 -13.15499,-7.05689 z m -273.19234,11.57609 0,7.30024 -11.3105,0 11.3105,-7.30024 z m 3.34096,0.20858 10.9625,7.09166 -10.9625,0 0,-7.09166 z m 228.33311,1.66863 12.80696,8.27361 -25.57915,0 12.77219,-8.27361 z m 57.77059,1.07765 35.84562,77.38254 -19.17566,0 c 0.002,0.12926 0.053,0.26398 0,0.38239 -0.10914,0.24364 -0.23724,0.45675 -0.34801,0.69527 l -16.32195,-63.19923 0,-15.26097 z m -5.56825,0.0347 0,17.38152 -21.12455,81.62363 c -4.08804,-0.64194 -7.85595,-2.11117 -11.38011,-4.20627 l -4.10659,-15.92147 36.61125,-78.87736 z m -243.05416,1.07766 0,15.3305 -16.42634,63.47732 c -6.58911,-4.71264 -10.68409,-11.2476 -10.68409,-18.45918 0,-0.12972 -0.002,-0.25313 0,-0.38239 l -0.66123,0 27.77166,-59.96625 z m 5.56826,0 14.40785,31.07815 -6.6123,14.32238 -7.79555,-30.10479 0,-15.29574 z m -58.22304,6.57021 26.658,0 -13.32899,7.16119 -13.32901,-7.16119 z m 230.21239,2.85057 10.71888,0 0,5.77067 -10.71888,-5.77067 z m 16.28713,0 10.37087,0 -10.37087,5.56209 0,-5.56209 z m -166.73431,8.89934 0,25.51607 -5.91627,-12.75804 5.91627,-12.75803 z m 221.51198,0.27811 15.5911,60.31388 c -3.78643,7.50044 -8.60412,12.28088 -15.5911,15.26097 l 0,-75.57485 z m -248.62241,1.18193 0,65.73692 c -5.85667,-1.08201 -11.14011,-3.15283 -15.45189,-6.014 l 15.45189,-59.72292 z m 5.56826,0 7.02991,27.21947 -7.02991,15.19145 0,-42.41092 z m 24.88312,0.10424 18.58403,40.08179 -3.96737,0 c 0.002,0.12961 0.0347,0.25233 0.0347,0.38239 0,4.5704 -1.64212,8.85028 -4.52419,12.58423 l -10.12726,-21.90072 0,-31.14769 z m 40.92664,0.27811 0,39.80368 -18.86245,0 18.86245,-39.80368 z m 171.67614,0.55621 0,75.33151 c -3.98586,1.05437 -8.53494,1.7506 -13.85102,2.15531 -2.14812,0.16353 -4.2028,0.13519 -6.19468,-0.10423 l 20.0457,-77.38254 z m -54.77767,2.29435 0,3.40678 -12.63297,49.85021 -35.77601,0 48.40898,-53.25699 z m 0,7.96074 0,45.29625 -11.48451,0 11.48451,-45.29625 z m -167.70876,1.42529 6.5427,14.11379 0,36.32738 c -1.20132,0.50342 -2.43979,0.95297 -3.72377,1.35576 l -9.60523,-37.09216 6.7863,-14.70477 z m 173.27701,0.86907 11.44972,44.42718 -4.03698,8.656 c -2.58813,-2.5993 -5.04008,-5.53939 -7.41274,-8.69077 l 0,-44.39241 z m -230.21238,4.38014 0.45242,1.80769 -0.45242,0 0,-1.80769 z m -5.56826,0.10424 0,1.70339 -0.4176,0 0.4176,-1.70339 z m -0.97443,3.92823 0.97443,0 0,18.28536 -5.49863,0 4.5242,-18.28536 z m 6.54269,0 0.97445,0 4.48939,18.28536 -5.46384,0 0,-18.28536 z m 49.41823,6.98737 9.25722,35.84069 c -4.1253,1.18116 -8.62152,1.84245 -13.329,1.84245 -1.15248,0 -2.28578,-0.0629 -3.41055,-0.13905 l 0,-21.37927 7.48233,-16.16466 z m 17.40079,5.04063 9.36162,20.19734 c -2.43573,2.86269 -5.6264,5.34294 -9.36162,7.335 l 0,-27.53234 z m 175.2607,25.6899 3.48015,13.48806 c -2.47505,-1.61395 -4.84436,-3.5218 -7.09952,-5.70114 l 3.61937,-7.78692 z m -176.86157,37.57885 c 21.51756,-6e-5 45.85743,1.33053 67.68905,4.48444 43.66325,6.3078 66.08466,8.83163 92.64178,7.9955 24.49478,-0.77122 50.24768,-5.62262 75.31059,-10.28987 -0.5828,0.9678 -1.17938,1.92944 -1.77487,2.88534 -0.0747,0.11977 -0.16872,0.22805 -0.24362,0.34763 -0.69176,1.1057 -1.37951,2.21307 -2.08809,3.30249 -0.11899,0.18293 -0.22857,0.37373 -0.34801,0.55621 -0.76207,1.16154 -1.55066,2.29927 -2.33171,3.44154 -1.07454,1.57147 -2.16168,3.15774 -3.27136,4.693 -0.10112,0.13992 -0.21179,0.27755 -0.3132,0.41716 -1.21427,1.67161 -2.43417,3.30743 -3.68898,4.93636 -13.8302,2.67678 -31.2344,5.3445 -42.52751,6.77879 -12.71653,1.61507 -39.26367,2.11626 -50.67109,1.11242 -11.40742,-1.00385 -34.26686,-3.65883 -40.09141,-5.07541 -5.82454,-1.41657 -47.91655,-6.80453 -69.04631,-8.30837 -21.12975,-1.50383 -45.69329,-0.38362 -68.48948,3.47631 l -0.17401,0.0347 c -0.83913,-1.11611 -1.68421,-2.23784 -2.50573,-3.37202 -0.0339,-0.0469 -0.0706,-0.0921 -0.10433,-0.13905 -0.33201,-0.45909 -0.64545,-0.92835 -0.97445,-1.39053 -0.62995,-0.8891 -1.26097,-1.77554 -1.87928,-2.67675 -0.89392,-1.29612 -1.7761,-2.60637 -2.64493,-3.92822 -0.85705,-1.30918 -1.70785,-2.63015 -2.54051,-3.96299 2.11956,-0.39143 4.953,-0.95105 9.32682,-1.84245 10.52782,-2.14557 29.22312,-3.47624 50.74069,-3.4763 z m -3.72378,32.64267 c 31.10515,-0.29158 65.76227,6.83169 92.01535,10.84606 35.82572,5.47815 81.39252,6.13038 113.10511,1.84245 -1.13683,1.0923 -2.28719,2.1729 -3.44536,3.23296 -1.15818,1.06007 -2.33575,2.10137 -3.51496,3.12867 -1.17921,1.02731 -2.34982,2.03036 -3.54976,3.02439 -0.0572,0.0473 -0.11674,0.0918 -0.17401,0.13905 -1.09398,0.90408 -2.23004,1.80072 -3.34095,2.67676 -0.0507,0.0401 -0.0884,0.099 -0.13921,0.13905 -0.0327,0.0257 -0.0716,0.0439 -0.10434,0.0695 -1.18796,0.93346 -2.37758,1.84529 -3.58456,2.74628 -1.24044,0.92595 -2.46356,1.82038 -3.72377,2.71151 -1.11894,0.79124 -2.27626,1.56572 -3.41056,2.32913 -0.14321,0.0964 -0.27416,0.21692 -0.41762,0.31286 -0.56315,0.37652 -1.13847,0.74283 -1.70527,1.11242 -0.71839,0.46846 -1.43337,0.93325 -2.1577,1.39053 -15.63101,2.62463 -33.39322,0.18649 -47.08652,-1.00813 -15.29732,-1.33457 -27.92428,-3.38687 -49.55744,-6.60498 -20.8822,-3.1064 -59.01426,-7.66826 -92.98979,-6.25735 -1.62454,-1.35053 -3.25155,-2.72563 -4.83742,-4.1368 -0.0245,-0.0218 -0.0452,-0.0478 -0.0696,-0.0695 -1.52811,-1.36118 -3.0331,-2.72058 -4.52421,-4.13681 -0.36207,-0.34369 -0.71898,-0.696 -1.07884,-1.04289 -1.01607,-0.97995 -2.02961,-1.98444 -3.02774,-2.98962 -0.41065,-0.41343 -0.81047,-0.8338 -1.21805,-1.25147 -1.08236,-1.10916 -2.14137,-2.23326 -3.20175,-3.37202 -0.27487,-0.2952 -0.56186,-0.57191 -0.83524,-0.86908 9.96855,-2.6919 21.01765,-3.85466 32.57426,-3.96298 z m 12.00655,38.03077 c 5.59732,-0.0512 44.73407,4.51213 71.0996,8.48218 23.95314,3.60681 36.4848,4.33299 53.76843,7.335 -0.1503,0.0469 -0.30197,0.0925 -0.45242,0.13906 -0.86764,0.26791 -1.73752,0.51188 -2.61012,0.76479 -0.60313,0.17492 -1.20425,0.35369 -1.80968,0.52144 -1.4798,0.41003 -2.96134,0.7804 -4.4546,1.14718 -1.49326,0.36678 -3.01798,0.71994 -4.52421,1.04289 -1.47057,0.3153 -2.93731,0.5961 -4.4198,0.86908 -1.71094,0.31412 -3.42445,0.61211 -5.15063,0.86908 -1.37055,0.20467 -2.76163,0.38802 -4.14139,0.55621 -1.29922,0.15837 -2.59067,0.32625 -3.89777,0.45191 -0.24451,0.0235 -0.48605,0.0471 -0.73083,0.0695 -0.73838,0.0671 -1.48654,0.11721 -2.2273,0.17382 -0.81938,0.0629 -1.64864,0.12379 -2.47092,0.17382 -0.16268,0.01 -0.32442,0.0255 -0.48722,0.0347 -1.30992,0.0755 -2.61559,0.1314 -3.93257,0.17381 -0.0931,0.003 -0.18533,-0.003 -0.27842,0 -0.57783,0.0175 -1.16096,0.0237 -1.74008,0.0347 -0.99754,0.0192 -1.99158,0.0347 -2.99293,0.0347 -1.82373,0 -3.65293,-0.0409 -5.46385,-0.10424 -1.78761,-0.0627 -3.55021,-0.15435 -5.32464,-0.2781 -0.069,-0.004 -0.13984,0.004 -0.20881,0 -1.40268,-0.0998 -2.81695,-0.21024 -4.21099,-0.34764 -1.18997,-0.11712 -2.36632,-0.27289 -3.54976,-0.41715 -1.41392,-0.17235 -2.84154,-0.34555 -4.24579,-0.5562 -0.4668,-0.0701 -0.92637,-0.16911 -1.39206,-0.24335 -1.04963,-0.16731 -2.08819,-0.33293 -3.13214,-0.52144 -1.53089,-0.27644 -3.04077,-0.58231 -4.55901,-0.90384 -0.12686,-0.0269 -0.25604,-0.0424 -0.38281,-0.0695 -1.6002,-0.3431 -3.21709,-0.71988 -4.80262,-1.11242 -0.0932,-0.0232 -0.18529,-0.0462 -0.27841,-0.0695 -1.62461,-0.4058 -3.22888,-0.82924 -4.83742,-1.28622 -1.70076,-0.4832 -3.39894,-0.99001 -5.08103,-1.52958 -1.56672,-0.50256 -3.11351,-1.04839 -4.66341,-1.5991 -0.2667,-0.0948 -0.53424,-0.18192 -0.80044,-0.2781 -1.50861,-0.54506 -2.99742,-1.11333 -4.4894,-1.70339 -1.64258,-0.64962 -3.28532,-1.31294 -4.90702,-2.01626 -1.09843,-0.47637 -2.18277,-0.99416 -3.27135,-1.49481 -0.55617,-0.25579 -1.11693,-0.50272 -1.67047,-0.76479 -0.4521,-0.21398 -0.90693,-0.44233 -1.35726,-0.6605 -1.10417,-0.53507 -2.21277,-1.07392 -3.30615,-1.63386 -1.57781,-0.80799 -3.14348,-1.64394 -4.69822,-2.50294 -1.55474,-0.85899 -3.09766,-1.73288 -4.6286,-2.64199 0.85677,-0.0673 1.75069,-0.13022 2.71452,-0.13905 z"
     id="path3341"
     style="fill:#000000;stroke:#000000;stroke-width:0.99999988;stroke-miterlimit:4;stroke-opacity:1;stroke-dasharray:none" />
</svg>
