<svg xmlns="http://www.w3.org/2000/svg" width="400" height="480"><path d="M56.9 130.578a24.073 53.252 0 1 1-48.146 0 24.073 53.252 0 1 1 48.146 0" style="fill:#fff;fill-opacity:1;fill-rule:evenodd;stroke:#000;stroke-width:.16379836;stroke-linecap:round;stroke-linejoin:round;stroke-miterlimit:4;stroke-opacity:1;stroke-dasharray:none;stroke-dashoffset:0" transform="matrix(8.28731 0 0 4.49746 -72.045 -347.267)"/><path d="M200.017.5C89.834.5.5 107.74.5 240.017.5 372.295 89.834 479.5 200.017 479.5c110.184 0 199.483-107.205 199.483-239.483C399.5 107.74 310.2.5 200.017.5zm8.144 19.398c9.132.48 18.094 1.799 26.832 3.824-.81 2.627-4.381 6.565-10.232 12.758-5.294 5.604-12.145 16.911-12.145 20.058 0 .081-.007.163 0 .243a31.6 31.6 0 0 1 6.16 3.616c1.35-.769 3.211-2.708 6.855-6.64 3.977-4.29 11.071-10.496 15.765-13.801s9.483-7.09 10.65-8.378c.478-.528 1.18-1.406 1.879-2.225 7.813 2.879 15.395 6.378 22.725 10.43-2.06 2.634-6.63 6.512-10.962 8.794-2.963 1.56-10.98 4.657-17.818 6.849-11.523 3.693-21.266 8.13-23.387 10.568a31.6 31.6 0 0 1 4.072 6.709l8.074-2.677c9.963-3.304 15.396-4.527 30.555-6.813 11.09-1.673 17.155-3.715 25.232-7.475 1.128-.525 2.73-1.874 4.14-3.093a189 189 0 0 1 20.43 17.59c-3.217 2.788-14.505 4.624-40.022 4.484-22.42-.123-28.62.197-36.333 1.877-4.33.944-8.125 1.634-9.988 2.538.43 2.075.661 4.228.661 6.431 0 .232.004.465 0 .695 2.83.31 8.637-.045 20.846.14 12.953.195 23.98 1.02 31.182 2.294 12.33 2.182 31.609 2.804 43.12 1.39l7.308-.903c.441.563.886 1.133 1.322 1.703l6.125 9.351c4.24 6.465 8.227 12.58 12.007 18.529 19.133 34.783 30.312 76.452 30.312 121.253 0 30.044-5.02 58.664-14.095 84.753l-36.472-78.773v-3.79l15.626-8.377 1.67-.904-18.966-12.202v-26.837c4.356-3.341 15.487 3.473 21.82-2.99-11.474-2.054-12.818-6.413-21.82-5.597v-2.711c.018-.594-.519-1.148-1.114-1.147s-1.132.553-1.113 1.147v37.892l-19.315 12.445 1.67.904 15.974 8.586v3.65l-37.029 79.85-12.18-47.312v-11.332l15.626-8.378 1.635-.904-18.375-11.854v-20.302l14.547-8.934 1.392-.87-16.113-11.853V168.3c3.676-5.002 15.82 3.114 22.551-3.754-11.773-2.108-12.891-6.613-22.551-5.493v-3.789c.023-.63-.59-1.207-1.218-1.147a1 1 0 0 0-.14.035 1.15 1.15 0 0 0-.87 1.112v48.112l-.104.07-17.087 12.584 1.392.869 14.86 9.108v19.884L254.97 257.99l1.67.904 15.975 8.586v3.685l-49.94 54.89h-5.5c-10.423 1.003-3.236 5.774 0 9.7 6.464 10.756 14.308 19.753 25.336 24.647-29.393-2.207-63.375-6.527-93.338-9.247l1.218-4.554c15.016-3.725 24.806-14.163 32.61-27.15 3.236-3.926 10.423-8.697 0-9.699h-5.882V286.74c3.676-5.002 15.855 3.113 22.586-3.754-11.782-2.11-12.907-6.622-22.586-5.493v-2.538c.019-.594-.519-1.147-1.114-1.147q-.105.007-.208.035a1.15 1.15 0 0 0-.905 1.112v34.798h-15.835v-46.826l12.25-25.829c5.49-1.618 12.273 10.3 21.125 7.474-9.42-7.362-8.305-11.912-17.366-15.434l1.74-3.685-1.01-.487-16.739 35.32v-29.132c.027-.96-.926-1.824-1.88-1.704-.814.103-1.484.884-1.461 1.704v36.188l-20.08 42.411h-1.045l-19.802-42.758v-40.048c.025-.946-.902-1.802-1.844-1.703-.827.086-1.518.873-1.497 1.704v38.482l-6.507 14.114-15.035-32.4v-21.691l15.626-8.378 1.636-.87-18.932-12.201V167.64c3.93-4.395 15.747 3.288 22.342-3.442-11.68-2.09-12.894-6.584-22.342-5.562v-1.564c.022-.63-.59-1.207-1.218-1.147a1 1 0 0 0-.14.034 1.15 1.15 0 0 0-.87 1.113v46.687l-19.314 12.445 1.67.869 15.974 8.586v21.484l-29.024 62.608h-.697l-4.489-18.285H60.15c.588.008 1.114-.525 1.114-1.113 0-.587-.526-1.12-1.114-1.112H49.57l-1.6-6.5v-18.32l15.625-8.379 1.67-.869-18.41-11.854v-8.795l14.548-8.934 1.392-.87-16.113-11.888v-17.764l.07 1.773c3.213-6.069 15.95 2.814 22.899-4.276-11.942-2.137-12.922-6.759-22.97-5.458v-1.634c.02-.594-.518-1.147-1.113-1.147s-1.132.553-1.114 1.147v26.594l-.07.035-15.8 11.645-1.322.974 1.392.869 14.86 9.108v8.412l-18.757 12.063 1.67.87 15.974 8.586v18.111l-1.6 6.501H30.254a1 1 0 0 0-.139 0c-.583.036-1.08.6-1.044 1.182s.6 1.08 1.183 1.043h9.988l-4.489 18.285H25.94c-6.091-21.916-9.431-45.355-9.431-69.734 0-53.33 15.777-102.223 42.04-140.339.008.126.027.257.035.383l4.072-6.119a213 213 0 0 1 3.584-4.728l6.473.835c10.867 1.477 31.424.834 44.129-1.39 8.1-1.42 17.853-2.087 31.739-2.19l19.593-.175c-.006-.241 0-.487 0-.73 0-1.934.188-3.828.522-5.666-.807-.668-2.914-1.734-8.422-3.06-6.933-1.667-13.176-2.025-36.68-2.016-28.13.012-34.321-.6-38.526-3.823-.762-.584-1.193-1.013-1.114-1.634a189 189 0 0 1 17.575-15.261c1.605-.059 4.267.773 7.134 2.224 6.86 3.473 15.685 5.955 24.327 6.884 7.842.842 28.433 5.623 33.827 7.856 1.893.784 3.225 1.224 4.245 1.356a31.5 31.5 0 0 1 4.037-6.57 5 5 0 0 0-.243-.313c-1.97-2.371-11.49-6.595-23.978-10.638-15.767-5.105-27.825-11.484-28.19-14.74 7.219-4.033 14.686-7.534 22.378-10.428a8.6 8.6 0 0 1 2.505 1.877c1.167 1.292 6.538 5.376 11.937 9.073 5.4 3.697 12.373 9.633 15.487 13.21 2.882 3.31 4.842 5.19 6.508 5.944a31.4 31.4 0 0 1 6.369-3.51c-.238-1.156-1.207-2.982-3.063-6.501-2.126-4.033-7.262-11.138-11.415-15.783s-7.552-9.252-7.552-10.255c0-.09.008-.188.035-.278 8.195-1.852 16.586-3.084 25.127-3.58.684 2.905 2.458 16.641 3.48 27.115.355 3.643.792 5.882 1.67 7.196a32 32 0 0 1 3.585-.209c1.368 0 2.715.11 4.037.278.964-2.097 1.49-6.905 2.61-18.077.587-5.853 1.265-12.353 1.775-16.338zm-8.109 47.173c-5.507 0-13.53 6.66-16.53 13.732-1.285 3.026-1.955 4.61 3.862 7.96 4.772 2.75 7.338 1.88 6.126 11.298-.562 4.363-.221 5.23-1.74 4.937-.833-.16-2.157-1.104-4.107-2.886-3.365-3.074-23.44-8.343-29.547-8.343-8.575 0-24.038 5.005-42.945 13.905-13.005 6.123-24.898 10.568-28.259 10.568-3.616 0-7.147 4.014-5.777 6.57 2.6 4.852 21.022 8.873 31.322 6.849 3.654-.718 11.078-1.34 16.53-1.39 8.345-.08 10.546.288 13.851 2.329 4.909 3.03 16.642 21.104 16.114 24.82-.25 1.75-3.272 4.515-9.815 8.934-16.307 11.016-20.2 17.54-14.268 23.848 3.078 3.272 7.818 3.316 14.93.174 3.775-1.668 7.314-2.326 11.832-2.19 8.284.248 10.898 1.301 16.81 6.744 2.657 2.447 6.32 5.221 8.108 6.153 3.864 2.013 4.399 2.056 7.204.556 1.843-.985 2.152-2.391 2.158-9.734.007-9.781 1.594-16.85 4.21-18.876 1-.774 4.88-1.39 8.77-1.39 6.255 0 7.41-.365 10.998-3.512 2.205-1.933 5.203-5.913 6.682-8.83 1.568-3.09 3.757-5.619 5.22-6.083 1.381-.438 5.503-3.659 9.188-7.161 9.65-9.172 10.368-9.44 23.978-8.9 22.742.904 25.247.606 35.08-4.38 10.264-5.204 19.489-12.628 19.489-15.678 0-2.734-2.513-3.967-10.023-4.832-6.53-.752-11.054-2.064-34.14-9.977-8.406-2.88-19.906-5.856-27.006-6.987-11.903-1.896-12.64-1.885-20.185.07-4.31 1.116-7.458 3.431-7.622 3.198s-1.71-5.02-2.819-8.691c-4.778-15.822-10.206-22.805-17.679-22.805zm-1.775 7.926c.517.01.949.142 1.392.104.533-.044 2.28.062 2.82.383 3.371 2.001 7.752 15.103 11.623 29.966 6.1 23.422 6.3 24.59 6.3 35.666 0 16.485-4.28 22.736-15.592 22.736-11.142 0-15.351 4.753-16.392 18.493-.418 5.525-.186 8.415-.696 9.63-.566 1.351-3.559-2.477-5.185-4.206-7.459-7.931-21.075-10.484-32.574-6.119-6.625 2.515-10.076 4.05-8.84 2.225.883-1.302 4.527-4.956 9.397-8.274 37.76-25.723 50.949-43.876 50.949-70.186 0-10.747.182-16.177-5.847-20.058-3.05-1.964-5.251-2.016-5.08-3.442.158-1.33 2.135-4.078 5.811-6.327.778-.476 1.397-.601 1.914-.59zm1.601 3.824c-.392.017-.819.197-1.253.556-.857.711-1.31 1.752-.974 2.295.812 1.313 2.42 1.238 3.271-.14.9-1.453.132-2.762-1.044-2.71zm36.507 23.882c8.679-.103 20.539 1.603 29.93 4.902 18.807 6.608 38.371 11.684 38.873 12.654.306.592-5.21 3.59-9.362 5.7-8.402 4.274-11.781 4.561-31.112 2.886-13.669-1.184-17.994.277-26.484 8.865-3.327 3.365-7.69 7.439-8.422 7.439-1.293 0-.778-3.58-2.228-15.226-.38-3.06-1.401-8.038-2.262-11.055-2.03-7.12-2.004-12.227.104-13.975 1.685-1.396 5.756-2.127 10.963-2.19zm-79.07.209c8.393-.25 16.426 1.43 23.736 5.006 7.232 3.537 10.798 8.162 9.918 12.862-1.155 6.17-6.918 15.852-13.468 22.7-3.687 3.855-7.469 7.023-8.422 7.023-2.24 0-4.986-3.108-11.554-13.14-3.151-4.814-7.168-9.359-9.85-11.125-4.52-2.977-4.594-2.977-24.917-2.885-11.214.05-20.394-.106-20.394-.313 0-.758 26.427-12.911 34.906-16.06 6.777-2.518 13.518-3.874 20.046-4.068zm117.352 103.211v7.787h-10.545zm-188.66.244v7.682H74.14zm2.228.278 11.484 7.404H88.235zm188.66.278 9.465 6.987h-9.466zm-232.44 7.891v7.752H33.908zm2.227.8 9.466 6.952h-9.466zm216.953 1.634h23.212l-10.58 6.5h-2.018zm-190.052.139h26.658l-13.12 7.057h-.418zm255.479 5.77v7.648h-11.833zm2.227.209 11.52 7.44h-11.52zm-297.867 2.538h23.213l-10.65 6.535h-1.948zm283.285 8.238h26.623l-13.19 7.057h-.278zM43.515 245.72v7.3h-11.31zm3.34.208 10.963 7.092H46.856zm228.334 1.669 12.807 8.273h-25.58zm57.77 1.077 35.846 77.383h-19.176c.002.13.053.264 0 .382-.109.244-.237.457-.348.696l-16.322-63.2zm-5.568.035v17.382l-21.124 81.623c-4.088-.642-7.856-2.111-11.38-4.206l-4.107-15.922zm-243.054 1.078v15.33l-16.426 63.478c-6.59-4.713-10.684-11.248-10.684-18.46 0-.13-.002-.253 0-.382h-.662zm5.568 0 14.408 31.078-6.612 14.322-7.796-30.105zm-58.223 6.57H58.34l-13.329 7.161zm230.213 2.85h10.718v5.771zm16.287 0h10.37l-10.37 5.563zm-166.735 8.9v25.516l-5.916-12.758zm221.512.278 15.591 60.314c-3.786 7.5-8.604 12.28-15.59 15.26zm-248.622 1.182v65.737c-5.857-1.082-11.14-3.153-15.452-6.014zm5.568 0 7.03 27.22-7.03 15.19zm24.883.104 18.584 40.082h-3.967c.002.13.035.252.035.382 0 4.57-1.642 8.85-4.524 12.585l-10.128-21.901zm40.927.278v39.804h-18.862zm171.676.556v75.332c-3.986 1.054-8.535 1.75-13.85 2.155-2.149.164-4.204.135-6.196-.104zm-54.778 2.295v3.407l-12.633 49.85h-35.776zm0 7.96v45.297H261.13zm-167.708 1.426 6.542 14.114v36.327q-1.8.753-3.723 1.356l-9.606-37.092zm173.277.869 11.45 44.427-4.038 8.656c-2.588-2.6-5.04-5.54-7.412-8.69zm-230.213 4.38.453 1.808h-.453zm-5.568.104v1.704h-.418zm-.974 3.929h.974v18.285h-5.499zm6.542 0h.975l4.49 18.285h-5.465zm49.419 6.987 9.257 35.84c-4.126 1.182-8.622 1.843-13.33 1.843a50 50 0 0 1-3.41-.139v-21.38zm17.4 5.04 9.362 20.198c-2.436 2.863-5.626 5.343-9.362 7.335zm175.261 25.69 3.48 13.488c-2.475-1.613-4.844-3.521-7.1-5.7zm-176.862 37.58c21.518 0 45.858 1.33 67.69 4.484 43.663 6.308 66.084 8.831 92.641 7.995 24.495-.771 50.248-5.622 75.31-10.29-.582.968-1.178 1.93-1.774 2.886-.075.12-.169.228-.244.347-.691 1.106-1.38 2.213-2.088 3.303-.119.183-.228.374-.348.556-.762 1.162-1.55 2.3-2.331 3.442a220 220 0 0 1-3.272 4.693c-.1.14-.212.277-.313.417a218 218 0 0 1-3.689 4.936c-13.83 2.677-31.234 5.345-42.527 6.779-12.717 1.615-39.264 2.116-50.672 1.112s-34.266-3.659-40.091-5.075c-5.824-1.417-47.917-6.805-69.046-8.309s-45.694-.383-68.49 3.477l-.174.035c-.839-1.117-1.684-2.238-2.505-3.373l-.105-.139c-.332-.459-.645-.928-.974-1.39-.63-.89-1.261-1.776-1.88-2.677a213 213 0 0 1-5.185-7.891c2.12-.391 4.953-.951 9.327-1.843 10.528-2.145 29.223-3.476 50.74-3.476zm-3.723 32.642c31.105-.292 65.762 6.832 92.015 10.846 35.826 5.478 81.393 6.13 113.105 1.842a195 195 0 0 1-3.445 3.233 192 192 0 0 1-3.515 3.13 190 190 0 0 1-3.55 3.023c-.057.048-.117.092-.174.14-1.094.904-2.23 1.8-3.34 2.676-.052.04-.09.1-.14.14-.033.025-.072.043-.104.069a182 182 0 0 1-3.585 2.746 180 180 0 0 1-3.724 2.712c-1.119.79-2.276 1.565-3.41 2.329-.144.096-.274.217-.418.313-.563.376-1.138.742-1.705 1.112-.719.468-1.434.933-2.158 1.39-15.63 2.625-33.393.187-47.086-1.008-15.298-1.334-27.925-3.386-49.558-6.605-20.882-3.106-59.014-7.668-92.99-6.257a190 190 0 0 1-4.837-4.137c-.025-.022-.045-.048-.07-.07a191 191 0 0 1-4.524-4.136c-.362-.344-.719-.696-1.079-1.043a198 198 0 0 1-3.027-2.99c-.411-.413-.81-.833-1.219-1.251a198 198 0 0 1-3.201-3.372c-.275-.295-.562-.572-.836-.87 9.969-2.691 21.018-3.854 32.575-3.962zm12.006 38.03c5.598-.05 44.734 4.513 71.1 8.483 23.953 3.607 36.485 4.333 53.768 7.335l-.452.139c-.868.268-1.738.512-2.61.765-.603.175-1.205.353-1.81.521-1.48.41-2.961.78-4.455 1.147-1.493.367-3.018.72-4.524 1.043-1.47.316-2.937.596-4.42.87-1.71.313-3.424.611-5.15.868-1.37.205-2.762.388-4.142.557-1.299.158-2.59.326-3.897.452-.245.023-.486.047-.731.069-.739.067-1.487.117-2.227.174-.82.063-1.65.124-2.471.174-.163.01-.325.025-.488.034-1.31.076-2.615.132-3.932.174-.093.003-.186-.003-.279 0-.577.018-1.16.024-1.74.035a149 149 0 0 1-2.993.035c-1.823 0-3.653-.041-5.463-.105-1.788-.062-3.55-.154-5.325-.278-.07-.004-.14.004-.209 0-1.403-.1-2.817-.21-4.21-.347-1.19-.118-2.367-.273-3.55-.418-1.415-.172-2.842-.345-4.246-.556-.467-.07-.927-.169-1.393-.243-1.05-.167-2.088-.333-3.132-.522a154 154 0 0 1-4.559-.903c-.127-.027-.256-.043-.382-.07a157 157 0 0 1-5.081-1.182 158 158 0 0 1-9.918-2.816 159 159 0 0 1-4.664-1.599c-.267-.095-.535-.182-.8-.278a160 160 0 0 1-4.49-1.703 163 163 0 0 1-4.907-2.016c-1.099-.477-2.183-.995-3.272-1.495-.556-.256-1.116-.503-1.67-.765-.452-.214-.907-.442-1.357-.66a167 167 0 0 1-3.306-1.634 169 169 0 0 1-4.699-2.503 171 171 0 0 1-4.628-2.642c.857-.068 1.75-.13 2.714-.14z" style="fill:#000;stroke:#000;stroke-width:.99999988;stroke-miterlimit:4;stroke-opacity:1;stroke-dasharray:none"/></svg>